<svg xmlns="http://www.w3.org/2000/svg" xmlns:xlink="http://www.w3.org/1999/xlink" width="500" zoomAndPan="magnify" viewBox="0 0 375 374.999991" height="500" preserveAspectRatio="xMidYMid meet" version="1.0"><defs><clipPath id="id1"><path d="M 140 75.816406 L 235 75.816406 L 235 195 L 140 195 Z M 140 75.816406 " clip-rule="nonzero"/></clipPath><clipPath id="id2"><path d="M 215 75.816406 L 235 75.816406 L 235 98 L 215 98 Z M 215 75.816406 " clip-rule="nonzero"/></clipPath><clipPath id="id3"><path d="M 45.453125 78 L 118 78 L 118 193 L 45.453125 193 Z M 45.453125 78 " clip-rule="nonzero"/></clipPath><clipPath id="id4"><path d="M 290 252 L 329.703125 252 L 329.703125 256 L 290 256 Z M 290 252 " clip-rule="nonzero"/></clipPath><clipPath id="id5"><path d="M 131 275 L 143 275 L 143 299.316406 L 131 299.316406 Z M 131 275 " clip-rule="nonzero"/></clipPath><clipPath id="id6"><path d="M 175 275 L 187 275 L 187 299.316406 L 175 299.316406 Z M 175 275 " clip-rule="nonzero"/></clipPath><clipPath id="id7"><path d="M 217 275 L 229 275 L 229 299.316406 L 217 299.316406 Z M 217 275 " clip-rule="nonzero"/></clipPath><clipPath id="id8"><path d="M 230 275 L 242 275 L 242 299.316406 L 230 299.316406 Z M 230 275 " clip-rule="nonzero"/></clipPath></defs><path fill="#ffffff" d="M 151.988281 193.609375 C 146.296875 193.609375 141.667969 188.980469 141.667969 183.28125 L 141.667969 87.324219 C 141.667969 81.632812 146.296875 77 151.988281 77 L 217.40625 77 C 217.757812 77 218.09375 77.15625 218.324219 77.425781 L 232.960938 94.550781 C 233.152344 94.773438 233.253906 95.050781 233.253906 95.339844 L 233.253906 183.28125 C 233.253906 188.980469 228.625 193.609375 222.929688 193.609375 L 151.988281 193.609375 " fill-opacity="1" fill-rule="nonzero"/><g clip-path="url(#id1)"><path fill="#5a231c" d="M 217.40625 75.789062 L 151.988281 75.789062 C 145.628906 75.789062 140.453125 80.964844 140.453125 87.324219 L 140.453125 183.28125 C 140.453125 189.644531 145.628906 194.820312 151.988281 194.820312 L 222.929688 194.820312 C 229.289062 194.820312 234.46875 189.644531 234.46875 183.28125 L 234.46875 95.339844 C 234.46875 94.761719 234.261719 94.203125 233.882812 93.765625 L 219.246094 76.636719 C 218.785156 76.097656 218.113281 75.789062 217.40625 75.789062 Z M 217.40625 78.210938 L 232.039062 95.339844 L 232.039062 183.28125 C 232.039062 188.316406 227.964844 192.398438 222.929688 192.398438 L 151.988281 192.398438 C 146.953125 192.398438 142.875 188.316406 142.875 183.28125 L 142.875 87.324219 C 142.875 82.292969 146.953125 78.210938 151.988281 78.210938 L 217.40625 78.210938 " fill-opacity="1" fill-rule="nonzero"/></g><path fill="#bdbcbc" d="M 217.40625 78.210938 L 205.914062 78.210938 C 213.675781 88.675781 218.304688 101.539062 218.304688 115.328125 C 218.304688 149.601562 189.699219 178.210938 155.417969 178.210938 C 151.132812 178.210938 146.9375 177.761719 142.875 176.910156 L 142.875 183.28125 C 142.875 188.316406 146.953125 192.398438 151.988281 192.398438 L 222.929688 192.398438 C 227.964844 192.398438 232.039062 188.316406 232.039062 183.28125 L 232.039062 95.339844 L 217.40625 78.210938 " fill-opacity="1" fill-rule="nonzero"/><path fill="#ffffff" d="M 217.503906 96.585938 C 216.832031 96.585938 216.292969 96.042969 216.292969 95.375 L 216.292969 78.25 C 216.292969 77.742188 216.609375 77.289062 217.085938 77.117188 C 217.21875 77.066406 217.363281 77.039062 217.503906 77.039062 C 217.851562 77.039062 218.191406 77.191406 218.425781 77.460938 L 233.039062 94.589844 C 233.347656 94.945312 233.417969 95.449219 233.222656 95.882812 C 233.023438 96.308594 232.589844 96.585938 232.117188 96.585938 L 217.503906 96.585938 " fill-opacity="1" fill-rule="nonzero"/><g clip-path="url(#id2)"><path fill="#5a231c" d="M 217.503906 75.828125 C 217.21875 75.828125 216.941406 75.878906 216.664062 75.976562 C 215.710938 76.328125 215.082031 77.238281 215.082031 78.25 L 215.082031 95.375 C 215.082031 96.710938 216.167969 97.796875 217.503906 97.796875 L 232.117188 97.796875 C 233.0625 97.796875 233.925781 97.246094 234.320312 96.386719 C 234.714844 95.53125 234.574219 94.519531 233.960938 93.800781 L 219.347656 76.675781 C 218.875 76.128906 218.199219 75.828125 217.503906 75.828125 Z M 217.503906 78.25 L 232.117188 95.375 L 217.503906 95.375 L 217.503906 78.25 " fill-opacity="1" fill-rule="nonzero"/></g><path fill="#5a231c" d="M 161.574219 122.292969 L 174.921875 135.644531 C 175.394531 136.121094 176.164062 136.121094 176.632812 135.644531 C 177.109375 135.171875 177.109375 134.40625 176.636719 133.933594 L 163.289062 120.582031 C 162.816406 120.109375 162.050781 120.109375 161.574219 120.582031 C 161.101562 121.054688 161.101562 121.824219 161.574219 122.292969 " fill-opacity="1" fill-rule="nonzero"/><path fill="#5a231c" d="M 174.921875 120.582031 L 161.574219 133.933594 C 161.101562 134.40625 161.101562 135.171875 161.574219 135.644531 C 162.050781 136.121094 162.816406 136.121094 163.289062 135.644531 L 176.636719 122.292969 C 177.109375 121.824219 177.109375 121.054688 176.632812 120.582031 C 176.164062 120.109375 175.394531 120.109375 174.921875 120.582031 " fill-opacity="1" fill-rule="nonzero"/><path fill="#5a231c" d="M 198.277344 122.292969 L 211.625 135.644531 C 212.097656 136.121094 212.863281 136.121094 213.335938 135.644531 C 213.808594 135.171875 213.808594 134.40625 213.339844 133.933594 L 199.992188 120.582031 C 199.519531 120.109375 198.753906 120.109375 198.277344 120.582031 C 197.804688 121.054688 197.804688 121.824219 198.277344 122.292969 " fill-opacity="1" fill-rule="nonzero"/><path fill="#5a231c" d="M 211.625 120.582031 L 198.277344 133.933594 C 197.804688 134.40625 197.804688 135.171875 198.277344 135.644531 C 198.753906 136.121094 199.519531 136.121094 199.992188 135.644531 L 213.339844 122.292969 C 213.808594 121.824219 213.808594 121.054688 213.335938 120.582031 C 212.863281 120.109375 212.097656 120.109375 211.625 120.582031 " fill-opacity="1" fill-rule="nonzero"/><path fill="#5a231c" d="M 163.542969 155.425781 L 211.371094 155.425781 C 212.039062 155.425781 212.578125 154.882812 212.578125 154.214844 C 212.578125 153.542969 212.039062 153.003906 211.371094 153.003906 L 163.542969 153.003906 C 162.875 153.003906 162.328125 153.542969 162.328125 154.214844 C 162.328125 154.882812 162.875 155.425781 163.542969 155.425781 " fill-opacity="1" fill-rule="nonzero"/><path fill="#c42e27" d="M 188.28125 154.214844 L 188.28125 162.902344 C 188.28125 168.175781 192.558594 172.457031 197.839844 172.457031 C 203.117188 172.457031 207.394531 168.175781 207.394531 162.902344 L 207.394531 154.214844 L 188.28125 154.214844 " fill-opacity="1" fill-rule="nonzero"/><path fill="#5a231c" d="M 188.28125 154.214844 L 187.066406 154.214844 L 187.066406 162.902344 C 187.070312 168.847656 191.890625 173.667969 197.839844 173.667969 C 203.78125 173.667969 208.605469 168.847656 208.605469 162.902344 L 208.605469 154.214844 C 208.605469 153.894531 208.476562 153.582031 208.25 153.355469 C 208.027344 153.132812 207.710938 153.003906 207.394531 153.003906 L 188.28125 153.003906 C 187.964844 153.003906 187.648438 153.132812 187.425781 153.355469 C 187.199219 153.582031 187.066406 153.894531 187.066406 154.214844 L 188.28125 154.214844 L 188.28125 155.425781 L 206.183594 155.425781 L 206.183594 162.902344 C 206.183594 165.210938 205.25 167.285156 203.738281 168.800781 C 202.222656 170.3125 200.148438 171.246094 197.839844 171.246094 C 195.53125 171.246094 193.453125 170.3125 191.9375 168.800781 C 190.425781 167.285156 189.492188 165.210938 189.492188 162.902344 L 189.492188 154.214844 L 188.28125 154.214844 L 188.28125 155.425781 L 188.28125 154.214844 " fill-opacity="1" fill-rule="nonzero"/><path fill="#5a231c" d="M 196.625 154.707031 L 196.625 165.679688 C 196.625 166.347656 197.167969 166.890625 197.839844 166.890625 C 198.507812 166.890625 199.054688 166.347656 199.054688 165.679688 L 199.054688 154.707031 C 199.054688 154.039062 198.507812 153.492188 197.839844 153.492188 C 197.167969 153.492188 196.625 154.039062 196.625 154.707031 " fill-opacity="1" fill-rule="nonzero"/><g clip-path="url(#id3)"><path fill="#50c4bc" d="M 77.394531 145.988281 L 91.519531 145.988281 L 91.519531 125.183594 Z M 91.519531 78.152344 L 117.75 78.152344 L 117.75 192.398438 L 91.519531 192.398438 L 91.519531 172.21875 L 45.730469 172.21875 L 45.730469 145.988281 L 91.519531 78.152344 " fill-opacity="1" fill-rule="nonzero"/></g><path fill="#50c4bc" d="M 279.019531 145.988281 L 293.144531 145.988281 L 293.144531 125.183594 Z M 293.144531 78.152344 L 319.375 78.152344 L 319.375 192.398438 L 293.144531 192.398438 L 293.144531 172.21875 L 247.355469 172.21875 L 247.355469 145.988281 L 293.144531 78.152344 " fill-opacity="1" fill-rule="nonzero"/><path fill="#50c4bc" d="M 117.515625 231.433594 L 130.414062 231.433594 L 130.414062 239.976562 L 117.515625 239.976562 L 117.515625 257.484375 L 133.742188 257.484375 L 133.742188 266.027344 L 108.121094 266.027344 L 108.121094 206.238281 L 133.742188 206.238281 L 133.742188 214.777344 L 117.515625 214.777344 L 117.515625 231.433594 " fill-opacity="1" fill-rule="nonzero"/><path fill="#50c4bc" d="M 148.949219 214.777344 L 148.949219 233.140625 L 152.621094 233.140625 C 156.121094 233.140625 158.261719 231.601562 158.261719 226.820312 L 158.261719 220.925781 C 158.261719 216.65625 156.808594 214.777344 153.472656 214.777344 Z M 159.199219 266.027344 C 158.6875 264.488281 158.34375 263.550781 158.34375 258.679688 L 158.34375 249.285156 C 158.34375 243.730469 156.464844 241.683594 152.195312 241.683594 L 148.949219 241.683594 L 148.949219 266.027344 L 139.554688 266.027344 L 139.554688 206.238281 L 153.734375 206.238281 C 163.46875 206.238281 167.652344 210.761719 167.652344 219.988281 L 167.652344 224.6875 C 167.652344 230.835938 165.6875 234.851562 161.503906 236.8125 C 166.199219 238.777344 167.742188 243.304688 167.742188 249.542969 L 167.742188 258.765625 C 167.742188 261.667969 167.824219 263.808594 168.765625 266.027344 L 159.199219 266.027344 " fill-opacity="1" fill-rule="nonzero"/><path fill="#50c4bc" d="M 183.285156 214.777344 L 183.285156 233.140625 L 186.960938 233.140625 C 190.460938 233.140625 192.597656 231.601562 192.597656 226.820312 L 192.597656 220.925781 C 192.597656 216.65625 191.144531 214.777344 187.8125 214.777344 Z M 193.535156 266.027344 C 193.019531 264.488281 192.683594 263.550781 192.683594 258.679688 L 192.683594 249.285156 C 192.683594 243.730469 190.800781 241.683594 186.53125 241.683594 L 183.285156 241.683594 L 183.285156 266.027344 L 173.890625 266.027344 L 173.890625 206.238281 L 188.070312 206.238281 C 197.804688 206.238281 201.992188 210.761719 201.992188 219.988281 L 201.992188 224.6875 C 201.992188 230.835938 200.027344 234.851562 195.839844 236.8125 C 200.539062 238.777344 202.074219 243.304688 202.074219 249.542969 L 202.074219 258.765625 C 202.074219 261.667969 202.160156 263.808594 203.101562 266.027344 L 193.535156 266.027344 " fill-opacity="1" fill-rule="nonzero"/><path fill="#50c4bc" d="M 216.855469 252.273438 C 216.855469 256.542969 218.730469 258.167969 221.722656 258.167969 C 224.710938 258.167969 226.589844 256.542969 226.589844 252.273438 L 226.589844 219.988281 C 226.589844 215.714844 224.710938 214.09375 221.722656 214.09375 C 218.730469 214.09375 216.855469 215.714844 216.855469 219.988281 Z M 207.457031 220.585938 C 207.457031 211.019531 212.496094 205.550781 221.722656 205.550781 C 230.945312 205.550781 235.984375 211.019531 235.984375 220.585938 L 235.984375 251.675781 C 235.984375 261.246094 230.945312 266.707031 221.722656 266.707031 C 212.496094 266.707031 207.457031 261.246094 207.457031 251.675781 L 207.457031 220.585938 " fill-opacity="1" fill-rule="nonzero"/><path fill="#50c4bc" d="M 251.449219 214.777344 L 251.449219 233.140625 L 255.121094 233.140625 C 258.621094 233.140625 260.757812 231.601562 260.757812 226.820312 L 260.757812 220.925781 C 260.757812 216.65625 259.304688 214.777344 255.976562 214.777344 Z M 261.695312 266.027344 C 261.183594 264.488281 260.839844 263.550781 260.839844 258.679688 L 260.839844 249.285156 C 260.839844 243.730469 258.964844 241.683594 254.691406 241.683594 L 251.449219 241.683594 L 251.449219 266.027344 L 242.050781 266.027344 L 242.050781 206.238281 L 256.230469 206.238281 C 265.964844 206.238281 270.148438 210.761719 270.148438 219.988281 L 270.148438 224.6875 C 270.148438 230.835938 268.183594 234.851562 264.003906 236.8125 C 268.699219 238.777344 270.238281 243.304688 270.238281 249.542969 L 270.238281 258.765625 C 270.238281 261.667969 270.324219 263.808594 271.261719 266.027344 L 261.695312 266.027344 " fill-opacity="1" fill-rule="nonzero"/><path fill="#f5801f" d="M 57.449219 218.316406 L 89.417969 218.316406 C 90.28125 218.316406 90.980469 217.613281 90.980469 216.75 C 90.980469 215.886719 90.28125 215.183594 89.417969 215.183594 L 57.449219 215.183594 C 56.582031 215.183594 55.882812 215.886719 55.882812 216.75 C 55.882812 217.613281 56.582031 218.316406 57.449219 218.316406 " fill-opacity="1" fill-rule="nonzero"/><path fill="#f5801f" d="M 76.214844 225.960938 L 94.976562 225.960938 C 95.839844 225.960938 96.542969 225.261719 96.542969 224.398438 C 96.542969 223.53125 95.839844 222.832031 94.976562 222.832031 L 76.214844 222.832031 C 75.347656 222.832031 74.644531 223.53125 74.644531 224.398438 C 74.644531 225.261719 75.347656 225.960938 76.214844 225.960938 " fill-opacity="1" fill-rule="nonzero"/><path fill="#f5801f" d="M 58.140625 239.167969 L 86.640625 239.167969 C 87.5 239.167969 88.203125 238.46875 88.203125 237.601562 C 88.203125 236.738281 87.5 236.039062 86.640625 236.039062 L 58.140625 236.039062 C 57.273438 236.039062 56.578125 236.738281 56.578125 237.601562 C 56.578125 238.46875 57.273438 239.167969 58.140625 239.167969 " fill-opacity="1" fill-rule="nonzero"/><path fill="#f5801f" d="M 81.074219 249.589844 L 94.976562 249.589844 C 95.839844 249.589844 96.542969 248.894531 96.542969 248.027344 C 96.542969 247.164062 95.839844 246.464844 94.976562 246.464844 L 81.074219 246.464844 C 80.214844 246.464844 79.511719 247.164062 79.511719 248.027344 C 79.511719 248.894531 80.214844 249.589844 81.074219 249.589844 " fill-opacity="1" fill-rule="nonzero"/><path fill="#f5801f" d="M 277.078125 224.566406 L 298.625 224.566406 C 299.488281 224.566406 300.1875 223.867188 300.1875 223.003906 C 300.1875 222.140625 299.488281 221.441406 298.625 221.441406 L 277.078125 221.441406 C 276.214844 221.441406 275.515625 222.140625 275.515625 223.003906 C 275.515625 223.867188 276.214844 224.566406 277.078125 224.566406 " fill-opacity="1" fill-rule="nonzero"/><path fill="#f5801f" d="M 279.164062 229.433594 L 320.171875 229.433594 C 321.035156 229.433594 321.734375 228.738281 321.734375 227.871094 C 321.734375 227.007812 321.035156 226.308594 320.171875 226.308594 L 279.164062 226.308594 C 278.296875 226.308594 277.601562 227.007812 277.601562 227.871094 C 277.601562 228.738281 278.296875 229.433594 279.164062 229.433594 " fill-opacity="1" fill-rule="nonzero"/><path fill="#f5801f" d="M 277.078125 246.816406 L 297.929688 246.816406 C 298.792969 246.816406 299.492188 246.113281 299.492188 245.246094 C 299.492188 244.386719 298.792969 243.683594 297.929688 243.683594 L 277.078125 243.683594 C 276.214844 243.683594 275.515625 244.386719 275.515625 245.246094 C 275.515625 246.113281 276.214844 246.816406 277.078125 246.816406 " fill-opacity="1" fill-rule="nonzero"/><g clip-path="url(#id4)"><path fill="#f5801f" d="M 291.671875 255.847656 L 327.816406 255.847656 C 328.679688 255.847656 329.378906 255.148438 329.378906 254.285156 C 329.378906 253.421875 328.679688 252.722656 327.816406 252.722656 L 291.671875 252.722656 C 290.808594 252.722656 290.109375 253.421875 290.109375 254.285156 C 290.109375 255.148438 290.808594 255.847656 291.671875 255.847656 " fill-opacity="1" fill-rule="nonzero"/></g><path fill="#c42e27" d="M 110.132812 279.183594 L 110.132812 287.011719 L 111.851562 287.011719 C 113.007812 287.011719 113.636719 286.480469 113.636719 284.832031 L 113.636719 281.363281 C 113.636719 279.710938 113.007812 279.183594 111.851562 279.183594 Z M 117.269531 281.597656 L 117.269531 284.601562 C 117.269531 288.300781 115.484375 290.3125 111.851562 290.3125 L 110.132812 290.3125 L 110.132812 299 L 106.503906 299 L 106.503906 275.882812 L 111.851562 275.882812 C 115.484375 275.882812 117.269531 277.894531 117.269531 281.597656 " fill-opacity="1" fill-rule="nonzero"/><path fill="#c42e27" d="M 121.988281 291.664062 L 125.488281 291.664062 L 123.738281 279.976562 Z M 130.277344 299 L 126.613281 299 L 125.984375 294.804688 L 121.527344 294.804688 L 120.898438 299 L 117.5625 299 L 121.265625 275.882812 L 126.578125 275.882812 L 130.277344 299 " fill-opacity="1" fill-rule="nonzero"/><g clip-path="url(#id5)"><path fill="#c42e27" d="M 137.375 286.121094 L 142.457031 286.121094 L 142.457031 293.449219 C 142.457031 297.152344 140.613281 299.265625 137.042969 299.265625 C 133.476562 299.265625 131.632812 297.152344 131.632812 293.449219 L 131.632812 281.429688 C 131.632812 277.734375 133.476562 275.617188 137.042969 275.617188 C 140.613281 275.617188 142.457031 277.734375 142.457031 281.429688 L 142.457031 283.675781 L 139.027344 283.675781 L 139.027344 281.199219 C 139.027344 279.546875 138.300781 278.917969 137.144531 278.917969 C 135.988281 278.917969 135.261719 279.546875 135.261719 281.199219 L 135.261719 293.683594 C 135.261719 295.332031 135.988281 295.925781 137.144531 295.925781 C 138.300781 295.925781 139.027344 295.332031 139.027344 293.683594 L 139.027344 289.417969 L 137.375 289.417969 L 137.375 286.121094 " fill-opacity="1" fill-rule="nonzero"/></g><path fill="#c42e27" d="M 148.433594 285.621094 L 153.417969 285.621094 L 153.417969 288.925781 L 148.433594 288.925781 L 148.433594 295.695312 L 154.710938 295.695312 L 154.710938 299 L 144.804688 299 L 144.804688 275.882812 L 154.710938 275.882812 L 154.710938 279.183594 L 148.433594 279.183594 L 148.433594 285.621094 " fill-opacity="1" fill-rule="nonzero"/><path fill="#c42e27" d="M 165.304688 282.257812 L 165.304688 299 L 162.035156 299 L 162.035156 275.882812 L 166.589844 275.882812 L 170.324219 289.71875 L 170.324219 275.882812 L 173.558594 275.882812 L 173.558594 299 L 169.828125 299 L 165.304688 282.257812 " fill-opacity="1" fill-rule="nonzero"/><g clip-path="url(#id6)"><path fill="#c42e27" d="M 179.503906 293.683594 C 179.503906 295.332031 180.226562 295.960938 181.382812 295.960938 C 182.535156 295.960938 183.265625 295.332031 183.265625 293.683594 L 183.265625 281.199219 C 183.265625 279.546875 182.535156 278.917969 181.382812 278.917969 C 180.226562 278.917969 179.503906 279.546875 179.503906 281.199219 Z M 175.867188 281.429688 C 175.867188 277.734375 177.816406 275.617188 181.382812 275.617188 C 184.949219 275.617188 186.898438 277.734375 186.898438 281.429688 L 186.898438 293.449219 C 186.898438 297.152344 184.949219 299.265625 181.382812 299.265625 C 177.816406 299.265625 175.867188 297.152344 175.867188 293.449219 L 175.867188 281.429688 " fill-opacity="1" fill-rule="nonzero"/></g><path fill="#c42e27" d="M 188.183594 275.882812 L 199.410156 275.882812 L 199.410156 279.183594 L 195.613281 279.183594 L 195.613281 299 L 191.976562 299 L 191.976562 279.183594 L 188.183594 279.183594 L 188.183594 275.882812 " fill-opacity="1" fill-rule="nonzero"/><path fill="#c42e27" d="M 209.742188 286.152344 L 214.429688 286.152344 L 214.429688 289.457031 L 209.742188 289.457031 L 209.742188 299 L 206.109375 299 L 206.109375 275.882812 L 215.71875 275.882812 L 215.71875 279.183594 L 209.742188 279.183594 L 209.742188 286.152344 " fill-opacity="1" fill-rule="nonzero"/><g clip-path="url(#id7)"><path fill="#c42e27" d="M 220.800781 293.683594 C 220.800781 295.332031 221.527344 295.960938 222.683594 295.960938 C 223.839844 295.960938 224.5625 295.332031 224.5625 293.683594 L 224.5625 281.199219 C 224.5625 279.546875 223.839844 278.917969 222.683594 278.917969 C 221.527344 278.917969 220.800781 279.546875 220.800781 281.199219 Z M 217.167969 281.429688 C 217.167969 277.734375 219.117188 275.617188 222.683594 275.617188 C 226.25 275.617188 228.195312 277.734375 228.195312 281.429688 L 228.195312 293.449219 C 228.195312 297.152344 226.25 299.265625 222.683594 299.265625 C 219.117188 299.265625 217.167969 297.152344 217.167969 293.449219 L 217.167969 281.429688 " fill-opacity="1" fill-rule="nonzero"/></g><g clip-path="url(#id8)"><path fill="#c42e27" d="M 234.007812 275.882812 L 234.007812 293.714844 C 234.007812 295.367188 234.730469 295.960938 235.890625 295.960938 C 237.042969 295.960938 237.769531 295.367188 237.769531 293.714844 L 237.769531 275.882812 L 241.207031 275.882812 L 241.207031 293.484375 C 241.207031 297.179688 239.355469 299.292969 235.789062 299.292969 C 232.226562 299.292969 230.375 297.179688 230.375 293.484375 L 230.375 275.882812 L 234.007812 275.882812 " fill-opacity="1" fill-rule="nonzero"/></g><path fill="#c42e27" d="M 246.914062 282.257812 L 246.914062 299 L 243.648438 299 L 243.648438 275.882812 L 248.203125 275.882812 L 251.933594 289.71875 L 251.933594 275.882812 L 255.171875 275.882812 L 255.171875 299 L 251.441406 299 L 246.914062 282.257812 " fill-opacity="1" fill-rule="nonzero"/><path fill="#c42e27" d="M 261.410156 279.183594 L 261.410156 295.695312 L 263.453125 295.695312 C 264.613281 295.695312 265.304688 295.101562 265.304688 293.449219 L 265.304688 281.429688 C 265.304688 279.777344 264.613281 279.183594 263.453125 279.183594 Z M 257.773438 275.882812 L 263.519531 275.882812 C 267.152344 275.882812 268.9375 277.894531 268.9375 281.597656 L 268.9375 293.285156 C 268.9375 296.984375 267.152344 299 263.519531 299 L 257.773438 299 L 257.773438 275.882812 " fill-opacity="1" fill-rule="nonzero"/></svg>